<svg xmlns="http://www.w3.org/2000/svg" xmlns:svg="http://www.w3.org/2000/svg" id="svg2" width="95.401" height="95" x="0" y="0" enable-background="new 0 0 100 100" version="1.1" viewBox="0 0 95.401 95" xml:space="preserve"><metadata id="metadata24"/><g id="g4" transform="translate(-1.085,-6)"><g id="g6"><path id="path8" d="m 58.879,49.042 c 7.508,0 13.586,-6.081 13.586,-13.584 0,-7.5 -6.078,-13.578 -13.586,-13.578 -7.496,0 -13.571,6.078 -13.571,13.578 0,7.504 6.075,13.584 13.571,13.584 z M 52.736,27.268 c 0,-0.872 0.578,-1.238 1.363,-0.784 l 14.16,8.178 c 0.781,0.448 0.781,1.153 0,1.607 L 54.1,44.435 c -0.785,0.419 -1.363,0.092 -1.363,-0.819 l 0,-16.348 z" style="fill:#000"/><path id="path10" d="m 20,9 0,50 76.486,0 0,-50 L 20,9 Z m 73.24,47.258 -69.993,0 0,-44.515 69.993,0 0,44.515 0,0 z" style="fill:#000"/></g><path id="path12" d="M 16.781,43.11 C 16.781,45.816 14.589,48 11.89,48 9.185,48 7,45.815 7,43.11 c 0,-2.698 2.185,-4.891 4.89,-4.891 2.699,0 4.891,2.193 4.891,4.891 z" style="fill:#000"/><path id="path14" d="m 28.126,39.611 c 1.459,0 2.625,1.73 1.283,3.351 l -5.074,9.796 c -1.356,1.65 -3.16,2.588 -4.972,2.588 -0.571,0 -1.136,-0.088 -1.693,-0.285 l -0.015,39.16 c 0,1.51 -1.225,2.779 -2.741,2.779 -1.512,0 -2.742,-1.145 -2.742,-2.654 l 0.006,-22.84 -1.217,0 -0.008,22.854 c 0,1.512 -1.225,2.59 -2.742,2.59 -1.51,0 -2.734,-1.195 -2.734,-2.715 l 0,-39.592 -0.726,0 0,14.664 c 0,1.1 -0.917,1.65 -1.833,1.65 -0.916,0 -1.833,-0.551 -1.833,-1.65 l 0,-15.186 c 0,-3.52 1.826,-6.342 5.287,-6.342 l 10.616,0 c 1.746,0 2.712,0.308 3.659,1.349 l 1.084,0.008 4.708,-8.638 c 0.521,-0.63 1.123,-0.887 1.687,-0.887 z" style="fill:#000"/></g><text id="text16" x="-1.085" y="113" font-size="5" font-weight="bold" style="font-weight:700;font-size:5px;font-family:'Helvetica Neue',Helvetica,Arial-Unicode,Arial,Sans-serif;fill:#000">Created by João Proença</text><text id="text18" x="-1.085" y="118" font-size="5" font-weight="bold" style="font-weight:700;font-size:5px;font-family:'Helvetica Neue',Helvetica,Arial-Unicode,Arial,Sans-serif;fill:#000">from the Noun Project</text></svg>
