<svg xmlns="http://www.w3.org/2000/svg" xmlns:svg="http://www.w3.org/2000/svg" id="svg2" width="98" height="79.1" x="0" y="0" enable-background="new 0 0 100 100" version="1.1" viewBox="0 0 98 79.1" xml:space="preserve"><metadata id="metadata14"/><path id="path4" d="m 6.8,79.1 84.4,0 c 3.7,0 6.8,-3 6.8,-6.8 L 98,6.8 C 98,3.1 95,0 91.2,0 L 6.8,0 C 3.1,0 0,3 0,6.8 l 0,65.5 c 0,3.8 3.1,6.8 6.8,6.8 z m 84.4,-3.5 -84.4,0 C 5,75.6 3.5,74.1 3.5,72.3 l 0,-49.8 91,0 0,49.9 c 0,1.8 -1.5,3.2 -3.3,3.2 z m -84.4,-72 84.4,0 c 1.8,0 3.3,1.5 3.3,3.3 l 0,12.1 -91,0 0,-12.2 C 3.5,5 5,3.6 6.8,3.6 Z M 10,12.5 C 9.7,12.2 9.5,11.7 9.5,11.3 c 0,-0.4 0.2,-0.9 0.5,-1.2 0.6,-0.7 1.8,-0.7 2.5,0 0.3,0.3 0.5,0.8 0.5,1.2 0,0.4 -0.2,0.9 -0.5,1.2 -0.3,0.3 -0.8,0.5 -1.2,0.5 -0.4,0 -1,-0.2 -1.3,-0.5 z m 9.4,0 c -0.3,-0.3 -0.5,-0.8 -0.5,-1.2 0,-0.4 0.2,-0.9 0.5,-1.2 0.6,-0.7 1.8,-0.6 2.5,0 0.3,0.3 0.5,0.8 0.5,1.2 0,0.5 -0.2,0.9 -0.5,1.2 -0.3,0.3 -0.8,0.5 -1.2,0.5 -0.5,0 -1,-0.2 -1.3,-0.5 z m 9.5,0 c -0.3,-0.3 -0.5,-0.8 -0.5,-1.2 0,-0.4 0.2,-0.9 0.5,-1.2 0.7,-0.7 1.8,-0.7 2.5,0 0.3,0.3 0.5,0.8 0.5,1.2 0,0.4 -0.2,0.9 -0.5,1.2 -0.3,0.3 -0.8,0.5 -1.2,0.5 -0.4,0 -1,-0.2 -1.3,-0.5 z m 44.4,50.6 c 0,1 -0.8,1.8 -1.8,1.8 l -26.1,0 c -1,0 -1.8,-0.8 -1.8,-1.8 0,-1 0.8,-1.8 1.8,-1.8 l 26.1,0 c 1,0.1 1.8,0.9 1.8,1.8 z m -42,-6.6 c -3.6,0 -6.6,3 -6.6,6.6 0,3.6 3,6.6 6.6,6.6 3.6,0 6.6,-3 6.6,-6.6 0,-3.6 -3,-6.6 -6.6,-6.6 z m 0,9.7 c -1.7,0 -3.1,-1.4 -3.1,-3.1 0,-1.7 1.4,-3.1 3.1,-3.1 1.7,0 3.1,1.4 3.1,3.1 0,1.7 -1.4,3.1 -3.1,3.1 z M 24.7,49.5 c 0,-1 0.8,-1.8 1.8,-1.8 l 25.8,0 c 1,0 1.8,0.8 1.8,1.8 0,1 -0.8,1.8 -1.8,1.8 l -25.9,0 c -0.9,-0.1 -1.7,-0.9 -1.7,-1.8 z m 42,-6.6 c -3.6,0 -6.6,3 -6.6,6.6 0,3.6 3,6.6 6.6,6.6 3.6,0 6.6,-3 6.6,-6.6 0,-3.6 -3,-6.6 -6.6,-6.6 z m 0,9.7 c -1.7,0 -3.1,-1.4 -3.1,-3.1 0,-1.7 1.4,-3.1 3.1,-3.1 1.7,0 3.1,1.4 3.1,3.1 0,1.7 -1.4,3.1 -3.1,3.1 z m 6.6,-16.9 c 0,1 -0.8,1.8 -1.8,1.8 l -26.1,0 c -1,0 -1.8,-0.8 -1.8,-1.8 0,-1 0.8,-1.8 1.8,-1.8 l 26.1,0 c 1,0 1.8,0.8 1.8,1.8 z m -42,6.6 c 3.6,0 6.6,-3 6.6,-6.6 0,-3.6 -3,-6.6 -6.6,-6.6 -3.6,0 -6.6,3 -6.6,6.6 0,3.6 3,6.6 6.6,6.6 z m 0,-9.7 c 1.7,0 3.1,1.4 3.1,3.1 0,1.7 -1.4,3.1 -3.1,3.1 -1.7,0 -3.1,-1.4 -3.1,-3.1 0,-1.7 1.4,-3.1 3.1,-3.1 z"/><text id="text6" x="-1" y="104.6" font-size="5" font-weight="bold" style="font-weight:700;font-size:5px;font-family:'Helvetica Neue',Helvetica,Arial-Unicode,Arial,Sans-serif;fill:#000">Created by Gregor Črešnar</text><text id="text8" x="-1" y="109.6" font-size="5" font-weight="bold" style="font-weight:700;font-size:5px;font-family:'Helvetica Neue',Helvetica,Arial-Unicode,Arial,Sans-serif;fill:#000">from the Noun Project</text></svg>