<svg xmlns="http://www.w3.org/2000/svg" xmlns:svg="http://www.w3.org/2000/svg" id="svg2" width="512" height="384" x="0" y="0" enable-background="new 0 0 512 512" version="1.1" viewBox="0 0 512 384" xml:space="preserve"><metadata id="metadata18"/><g id="g4" transform="translate(0,-64)"><path id="path6" d="M 446.844,208.875 C 447.625,203.313 448,197.656 448,192 448,121.437 390.594,64 320,64 279.062,64 241.469,83.344 217.656,115.063 209.25,113.031 200.688,112 192,112 130.25,112 80,162.25 80,224 c 0,1.563 0.031,3.094 0.094,4.625 C 33.813,242.375 0,285.313 0,336 0,397.75 50.25,448 112,448 l 272,0 c 70.594,0 128,-57.406 128,-128 0,-46.656 -25.656,-88.812 -65.156,-111.125 z M 384,416 112,416 c -44.188,0 -80,-35.813 -80,-80 0,-44.187 35.813,-80 80,-80 2.438,0 4.75,0.5 7.125,0.719 -4.5,-10 -7.125,-21.031 -7.125,-32.719 0,-44.188 35.813,-80 80,-80 14.438,0 27.813,4.125 39.5,10.813 C 246,120.25 280.156,96 320,96 c 53.031,0 96,42.969 96,96 0,12.625 -2.594,24.625 -7.031,35.688 40.844,11.062 71.031,48 71.031,92.312 0,53.031 -42.969,96 -96,96 z"/><path id="path8" d="m 256,352 c -35.297,0 -64,-28.688 -64,-64 0,-35.312 28.703,-64 64,-64 l 0,32 80,-48 -80,-48 0,32 c -52.938,0 -96,43.063 -96,96 0,52.937 43.063,96 96,96 52.937,0 96,-43.063 96,-96 l -32,0 c 0,35.313 -28.719,64 -64,64 z"/></g><text id="text10" x="0" y="463" font-size="5" font-weight="bold" style="font-weight:700;font-size:5px;font-family:'Helvetica Neue',Helvetica,Arial-Unicode,Arial,Sans-serif;fill:#000">Created by Simple Icons</text><text id="text12" x="0" y="468" font-size="5" font-weight="bold" style="font-weight:700;font-size:5px;font-family:'Helvetica Neue',Helvetica,Arial-Unicode,Arial,Sans-serif;fill:#000">from the Noun Project</text></svg>