<svg xmlns="http://www.w3.org/2000/svg" xmlns:svg="http://www.w3.org/2000/svg" id="svg2" width="86.924" height="86.924" x="0" y="0" enable-background="new 0 0 100 100" version="1.1" viewBox="0 0 86.924 86.924" xml:space="preserve"><metadata id="metadata16"/><path id="path4" d="m 60.015,-7.2021484e-6 -32.984,0 C 23.164,-7.2021484e-6 20,3.1639928 20,7.0309928 l 0,72.8619992 c 0,3.867 3.164,7.031 7.031,7.031 l 32.984,0 c 3.867,0 7.031,-3.164 7.031,-7.031 l 0,-72.8609992 C 67.047,3.1649928 63.882,-7.2021484e-6 60.015,-7.2021484e-6 Z M 35.797,5.5319928 l 15.451,0 c 0.654,0 1.189,0.535 1.189,1.189 0,0.654 -0.535,1.189 -1.189,1.189 l -15.451,0 c -0.654,0 -1.189,-0.535 -1.189,-1.189 0,-0.654 0.535,-1.189 1.189,-1.189 z m 7.726,78.3999992 c -2.312,0 -4.187,-1.875 -4.187,-4.187 0,-2.312 1.875,-4.187 4.187,-4.187 2.312,0 4.187,1.875 4.187,4.187 0,2.313 -1.875,4.187 -4.187,4.187 z m 20.159,-11.323 -40.318,0 0,-59.763 40.318,0 0,59.763 z" style="fill:#000"/><path id="path6" d="m 57.247,43.294992 c 0.228,-0.603 0.354,-1.256 0.354,-1.939 0,-3.026 -2.453,-5.479 -5.479,-5.479 -0.695,0 -1.358,0.131 -1.97,0.366 -0.921,-3.255 -3.914,-5.641 -7.464,-5.641 -3.936,0 -7.186,2.932 -7.688,6.73 -0.18,-0.013 -0.361,-0.019 -0.544,-0.019 -4.233,0 -7.664,3.431 -7.664,7.664 0,4.072 3.176,7.402 7.186,7.649 l 10.583,0.015 11.346,-0.027 c 2.442,-0.255 4.345,-2.32 4.345,-4.829 10e-4,-2.027 -1.241,-3.763 -3.005,-4.49 z m -1.496,6.798 -5.109,0.012 0,-11.35 0.418,-0.161 c 0.34,-0.131 0.698,-0.198 1.063,-0.198 1.631,0 2.958,1.327 2.958,2.958 0,0.36 -0.064,0.712 -0.191,1.047 l -0.867,2.29 2.264,0.933 c 0.879,0.362 1.447,1.21 1.447,2.16 -0.001,1.165 -0.846,2.139 -1.983,2.309 z"/><text id="text8" x="-26.477" y="108.463" font-size="5" font-weight="bold" style="font-weight:700;font-size:5px;font-family:'Helvetica Neue',Helvetica,Arial-Unicode,Arial,Sans-serif;fill:#000">Created by Thays Malcher</text><text id="text10" x="-26.477" y="113.463" font-size="5" font-weight="bold" style="font-weight:700;font-size:5px;font-family:'Helvetica Neue',Helvetica,Arial-Unicode,Arial,Sans-serif;fill:#000">from the Noun Project</text></svg>
