<svg xmlns="http://www.w3.org/2000/svg" xmlns:svg="http://www.w3.org/2000/svg" id="svg2" width="90" height="90.016" x="0" y="0" version="1.1" viewBox="0 0 90 90.016" xml:space="preserve"><metadata id="metadata14"/><path style="fill:#000;fill-opacity:1" id="path4" d="m 18.4375,0.004 c -0.640974,0 -1.265514,0.2655144 -1.71875,0.71875 C 16.265695,1.1758057 16,1.8007062 16,2.4415 l 0,71.75 c 0,0.640974 0.265695,1.296765 0.71875,1.75 0.453236,0.453236 1.077776,0.71875 1.71875,0.71875 l 21.25,0 c 0.211498,-0.498595 0.422502,-0.998345 0.625,-1.5 0.600834,-0.658074 -0.04866,-1.367556 -0.375,-1.96875 -0.155698,-0.462056 -0.244971,-0.971844 -0.40625,-1.4375 l -18.65625,0 0,-66.84375 31.75,0 0,13.53125 c 0,0.640974 0.265695,1.265515 0.71875,1.71875 0.453236,0.453236 1.077776,0.71875 1.71875,0.71875 l 14.25,0 0,50.875 -5.3125,0 c -0.363596,0.883792 -0.462095,1.966717 -1.03125,2.71875 0.315177,0.725933 0.625563,1.459947 0.9375,2.1875 l 7.84375,0 c 0.640794,0 1.265694,-0.265514 1.71875,-0.71875 0.453235,-0.453235 0.71875,-1.109026 0.71875,-1.75 l 0,-55.65625 c -0.06984,-0.716393 -0.322684,-1.450384 -0.75,-1.875 L 56.75,0.6915 C 56.312064,0.274624 55.729794,0.0158799 55.125,0.004 c -12.212342,-0.009 -24.463818,0 -36.6875,0 z m 39.09375,8.28125 8.03125,7.71875 -8.03125,0 0,-7.71875 z M 29.25,27.504 c -1.196628,0 -2.15625,0.959622 -2.15625,2.15625 0,1.196628 0.959622,2.15625 2.15625,2.15625 l 31.6875,0 c 1.196628,0 2.15625,-0.959622 2.15625,-2.15625 0,-1.196628 -0.959622,-2.15625 -2.15625,-2.15625 l -31.6875,0 z m 0,10.28125 c -1.196628,0 -2.15625,0.990872 -2.15625,2.1875 0,1.196628 0.959622,2.15625 2.15625,2.15625 l 31.6875,0 c 1.196628,0 2.15625,-0.959622 2.15625,-2.15625 0,-1.196628 -0.959622,-2.1875 -2.15625,-2.1875 l -31.6875,0 z m 22.53125,9.4375 c -0.624234,0 -1.252055,0.175144 -1.78125,0.5625 L 48.5,48.879 c -0.518755,0.379616 -1.138476,0.59591 -1.78125,0.59375 l -1.84375,0 c -1.311827,-0.0054 -2.473784,0.813312 -2.875,2.0625 l -0.5625,1.78125 c -0.196558,0.611994 -0.603545,1.155054 -1.125,1.53125 l -1.5,1.0625 c -1.06415,0.767692 -1.503066,2.128692 -1.09375,3.375 l 0.5625,1.78125 c 0.200518,0.610554 0.200518,1.264445 0,1.875 l -0.5625,1.75 c -0.409316,1.246128 0.02978,2.607308 1.09375,3.375 l 1.5,1.09375 c 0.521455,0.376016 0.928622,0.919616 1.125,1.53125 L 42,72.4415 c 0.401216,1.249188 1.563173,2.09825 2.875,2.09375 l 1.84375,0 c 0.642774,-0.0036 1.262495,0.214134 1.78125,0.59375 l 1.5,1.0625 c 1.05893,0.774532 2.50357,0.774532 3.5625,0 l 1.5,-1.0625 c 0.518755,-0.379616 1.138476,-0.59609 1.78125,-0.59375 l 1.84375,0 c 1.311828,0.0054 2.473783,-0.844562 2.875,-2.09375 l 0.5625,-1.75 c 0.196378,-0.611634 0.603725,-1.155234 1.125,-1.53125 l 1.5,-1.09375 c 1.06397,-0.767692 1.503246,-2.129052 1.09375,-3.375 L 65.25,62.9415 c -0.200518,-0.610555 -0.200518,-1.264446 0,-1.875 l 0.59375,-1.78125 c 0.409496,-1.246308 -0.02978,-2.607308 -1.09375,-3.375 l -1.5,-1.0625 C 62.728725,54.471554 62.321378,53.928494 62.125,53.3165 l -0.5625,-1.78125 c -0.401217,-1.249188 -1.563172,-2.06664 -2.875,-2.0625 l -1.84375,0 C 56.200976,49.47635 55.581255,49.258616 55.0625,48.879 l -1.5,-1.09375 c -0.529195,-0.387356 -1.157016,-0.5625 -1.78125,-0.5625 z M 29.25,48.09775 c -1.196628,0 -2.15625,0.959621 -2.15625,2.15625 0,1.196628 0.959622,2.1875 2.15625,2.1875 l 9.8125,0 c 0.05076,-0.07326 0.08144,-0.169901 0.125,-0.25 0.133019,-1.653644 1.048302,-3.114379 2.34375,-4.09375 l -12.28125,0 z m 22.53125,3.3125 c 2.706274,0 5.403809,1.06042 7.46875,3.125 4.11188,4.111881 4.14954,10.76935 0.0625,14.90625 L 59.25,69.47275 c -4.129701,4.129701 -10.80798,4.129701 -14.9375,0 -4.129701,-4.12934 -4.129701,-10.80762 0,-14.9375 2.06476,-2.06458 4.762656,-3.125 7.46875,-3.125 z M 58.25,57.4415 c -0.02826,0 -0.06693,0.02225 -0.09375,0.03125 -0.123479,0.0477 -0.294152,0.06362 -0.46875,0.125 -0.361797,0.127799 -0.696093,0.289832 -1.03125,0.46875 -1.276187,0.682014 -2.38782,1.635369 -3.40625,2.625 -0.825832,0.802972 -1.627896,1.705679 -2.34375,2.65625 l -0.78125,1.125 -0.09375,-0.125 C 49.082659,63.230681 48.379269,62.319514 47.1875,61.6915 46.015351,61.073927 45.072859,60.905 43.96875,61.004 c -0.09738,0.0088 -0.19427,0.09246 -0.21875,0.1875 -0.02448,0.09504 0.01239,0.1951 0.09375,0.25 3.031171,2.04406 3.5728,3.205295 4.59375,4.8125 0.505795,0.796672 0.813742,1.312883 1.0625,1.625 0.124379,0.156239 0.214871,0.26239 0.34375,0.34375 0.128698,0.081 0.299621,0.125 0.4375,0.125 0.277737,0 0.534362,-0.146832 0.75,-0.34375 0.215098,-0.196198 0.389342,-0.449694 0.5625,-0.78125 1.590105,-2.999492 3.554711,-6.269379 6.8125,-9.34375 0.07038,-0.0657 0.09886,-0.19269 0.0625,-0.28125 C 58.43257,57.50883 58.34576,57.4415 58.25,57.4415 Z m -15.625,17.65625 -6,14.1875 c -0.0702,0.165778 -0.03135,0.370401 0.09375,0.5 0.124919,0.129419 0.331702,0.157829 0.5,0.09375 l 6.71875,-2.5625 3.90625,2.59375 c 0.131219,0.08802 0.294221,0.129099 0.4375,0.0625 0.142918,-0.06642 0.23218,-0.218042 0.25,-0.375 l 1.375,-12.09375 c -0.423896,-0.206458 -0.829123,-0.465242 -1.1875,-0.75 -0.04068,-0.0414 -0.08252,-0.0854 -0.125,-0.125 -0.638634,-0.586795 -1.463918,-0.9609 -2.34375,-0.9375 -1.210308,0.153358 -2.57435,0.03624 -3.625,-0.59375 z m 18.3125,0 c -1.276728,0.891892 -2.926913,0.491192 -4.375,0.65625 -1.111669,0.291417 -1.933109,1.244135 -2.9375,1.78125 L 55,89.59775 c 0.018,0.156778 0.138331,0.308581 0.28125,0.375 0.143458,0.06642 0.306282,0.05659 0.4375,-0.03125 l 3.90625,-2.625 6.71875,2.5625 c 0.168118,0.06408 0.374901,0.03585 0.5,-0.09375 0.124919,-0.129419 0.163769,-0.334042 0.09375,-0.5 l -6,-14.1875 z"/><text id="text6" x="-20.906" y="110.004" font-size="5" font-weight="bold" style="font-weight:700;font-size:5px;font-family:'Helvetica Neue',Helvetica,Arial-Unicode,Arial,Sans-serif;fill:#000">Created by Aha-Soft</text><text id="text8" x="-20.906" y="115.004" font-size="5" font-weight="bold" style="font-weight:700;font-size:5px;font-family:'Helvetica Neue',Helvetica,Arial-Unicode,Arial,Sans-serif;fill:#000">from the Noun Project</text></svg>
