<svg xmlns="http://www.w3.org/2000/svg" xmlns:svg="http://www.w3.org/2000/svg" id="svg2" width="97.4" height="98.852" x="0" y="0" version="1.1" viewBox="-205 207 97.4 98.852" xml:space="preserve"><metadata id="metadata18"/><switch id="switch4" transform="translate(-1.3,-0.64811111)"><g id="g6"><path id="path8" d="m -152.3,285.8 0,-2.3 c 2,-0.4 3.8,-1.2 5.4,-2.3 l 1.6,1.6 c 0.6,0.6 1.6,0.6 2.2,0 l 1.7,-1.7 c 0.6,-0.6 0.6,-1.6 0,-2.2 l -1.6,-1.6 c 1.1,-1.6 1.9,-3.4 2.2,-5.4 l 2.3,0 c 0.8,0 1.5,-0.7 1.5,-1.5 l 0,-2.4 c 0,-0.8 -0.7,-1.5 -1.5,-1.5 l -2.3,0 c -0.4,-2 -1.1,-3.8 -2.2,-5.4 l 1.6,-1.6 c 0.6,-0.6 0.6,-1.6 0,-2.2 l -1.7,-1.7 c -0.6,-0.6 -1.6,-0.6 -2.2,0 l -1.6,1.6 c -1.6,-1.1 -3.4,-1.9 -5.4,-2.3 l 0,-2.3 c 0,-0.8 -0.7,-1.5 -1.5,-1.5 l -2.4,0 c -0.8,0 -1.5,0.7 -1.5,1.5 l 0,2.3 c -2,0.4 -3.8,1.1 -5.5,2.2 l -1.6,-1.6 c -0.6,-0.6 -1.6,-0.6 -2.2,0 l -1.7,1.7 c -0.6,0.6 -0.6,1.6 0,2.2 l 1.6,1.6 c -1.1,1.6 -1.9,3.5 -2.3,5.5 l -2.2,0 c -0.8,0 -1.5,0.7 -1.5,1.5 l 0,2.4 c 0,0.8 0.7,1.5 1.5,1.5 l 2.2,0 c 0.4,2 1.2,3.9 2.3,5.5 l -1.6,1.6 c -0.6,0.6 -0.6,1.6 0,2.2 l 1.7,1.7 c 0.6,0.6 1.6,0.6 2.2,0 l 1.6,-1.6 c 1.6,1.1 3.5,1.9 5.5,2.2 l 0,2.3 c 0,0.8 0.7,1.5 1.5,1.5 l 2.4,0 c 0.8,0 1.5,-0.7 1.5,-1.5 z m 3.5,-24 c 2.2,1.8 3.5,4.5 3.5,7.5 0,3 -1.4,5.7 -3.5,7.4 l -1.6,-2.7 c 1.2,-1.2 2,-2.9 2,-4.8 0,-1.9 -0.8,-3.6 -2,-4.8 l 1.6,-2.6 z m -6.2,-2.2 c 1.1,0 2.1,0.2 3,0.5 l -1.5,2.6 c -0.6,-0.1 -1.1,-0.2 -1.7,-0.2 -3.1,0 -5.8,2.1 -6.6,5 l -2.8,0 c 0.9,-4.5 4.8,-7.9 9.6,-7.9 z m 3.1,9.7 c 0,1.8 -1.5,3.3 -3.3,3.3 -1.8,0 -3.3,-1.5 -3.3,-3.3 0,-1.8 1.5,-3.3 3.3,-3.3 1.8,0 3.3,1.5 3.3,3.3 z m -3.1,9.7 c -4.8,0 -8.7,-3.4 -9.6,-8 l 2.8,0 c 0.8,2.9 3.4,5 6.6,5 0.6,0 1.2,-0.1 1.8,-0.2 l 1.5,2.6 c -1,0.4 -2,0.6 -3.1,0.6 z m 14.4,-37 c 0,-0.1 0,-0.1 0,0 0,0 0,0 0,0 z m -28.7,0 c 0,0 0,0 0,0 0,-0.1 0,-0.1 0,0 z m 29.1,48 c 0,0 0,0 0,0 0,0 0,0 0,0 z m -29.2,0 c 0,0 0,0 0,0 0,0 0,0 0,0 z m 14.5,16.5 c 0.7,0 1.3,-0.6 1.3,-1.3 0,-0.7 -0.6,-1.3 -1.3,-1.3 l -0.2,0 c 0,0 0,0 0,0 -0.7,0 -1.3,0.6 -1.3,1.3 0,0.7 0.6,1.3 1.3,1.3 l 0.2,0 z m 6,-3.2 -0.2,0 c -0.7,0.1 -1.2,0.8 -1.1,1.5 0.1,0.6 0.7,1.1 1.3,1.1 0.1,0 0.1,0 0.2,0 l 0.2,0 c 0.7,-0.1 1.2,-0.8 1.1,-1.5 -0.1,-0.8 -0.8,-1.2 -1.5,-1.1 z m -12.4,2.6 c 0.1,0 0.2,0 0.2,0 0.6,0 1.2,-0.5 1.3,-1.1 0.1,-0.7 -0.4,-1.4 -1.1,-1.5 l -0.2,0 c -0.7,-0.1 -1.4,0.4 -1.5,1.1 -0.1,0.7 0.3,1.4 1.1,1.5 l 0.2,0 z m 18.4,-1.5 c 0.1,0 0.3,0 0.4,-0.1 l 0.2,-0.1 c 0.7,-0.3 1,-1 0.8,-1.7 -0.3,-0.7 -1,-1 -1.7,-0.8 l -0.2,0.1 c -0.7,0.2 -1,1 -0.8,1.7 0.3,0.5 0.8,0.9 1.3,0.9 z m -24.6,-0.1 c 0.1,0.1 0.3,0.1 0.5,0.1 0.5,0 1.1,-0.3 1.2,-0.9 0.2,-0.7 -0.1,-1.4 -0.8,-1.7 l -0.2,-0.1 c -0.7,-0.3 -1.5,0.1 -1.7,0.8 -0.3,0.7 0.1,1.4 0.8,1.7 l 0.2,0.1 z m 29.7,-5.1 -0.2,0.1 c -0.6,0.4 -0.9,1.2 -0.5,1.8 0.2,0.4 0.7,0.7 1.2,0.7 0.2,0 0.5,-0.1 0.7,-0.2 l 0.2,-0.1 c 0.6,-0.4 0.8,-1.2 0.5,-1.8 -0.4,-0.7 -1.2,-0.9 -1.9,-0.5 z m -35.7,2.3 0.2,0.1 c 0.2,0.1 0.4,0.2 0.7,0.2 0.5,0 0.9,-0.2 1.2,-0.7 0.4,-0.6 0.1,-1.4 -0.5,-1.8 l -0.2,-0.1 c -0.6,-0.4 -1.4,-0.2 -1.8,0.5 -0.5,0.6 -0.3,1.4 0.4,1.8 z m 52.3,-38 0,0.2 c 0.1,0.6 0.7,1.1 1.3,1.1 0.1,0 0.1,0 0.2,0 0.7,-0.1 1.2,-0.8 1.1,-1.5 l 0,-0.2 c -0.1,-0.7 -0.8,-1.2 -1.5,-1.1 -0.7,0.1 -1.2,0.8 -1.1,1.5 z m -70.1,-0.6 0,0.2 c -0.1,0.7 0.4,1.4 1.1,1.5 0.1,0 0.2,0 0.2,0 0.6,0 1.2,-0.5 1.3,-1.1 l 0,-0.2 c 0.1,-0.7 -0.3,-1.4 -1.1,-1.5 -0.7,-0.1 -1.4,0.4 -1.5,1.1 z m 71.1,-6.1 c -0.3,-0.7 -1,-1 -1.7,-0.8 -0.7,0.3 -1,1 -0.8,1.7 l 0.1,0.2 c 0.2,0.5 0.7,0.9 1.2,0.9 0.1,0 0.3,0 0.4,-0.1 0.7,-0.2 1,-1 0.8,-1.7 l 0,-0.2 z m -67.7,-0.9 c -0.7,-0.3 -1.5,0.1 -1.7,0.8 l -0.1,0.2 c -0.2,0.7 0.1,1.4 0.8,1.7 0.1,0.1 0.3,0.1 0.5,0.1 0.5,0 1.1,-0.3 1.2,-0.9 l 0.1,-0.2 c 0.2,-0.7 -0.1,-1.4 -0.8,-1.7 z M -123,251 c -0.4,-0.6 -1.2,-0.8 -1.8,-0.5 -0.6,0.4 -0.8,1.2 -0.5,1.8 l 0.1,0.2 c 0.2,0.4 0.7,0.7 1.2,0.7 0.2,0 0.5,-0.1 0.7,-0.2 0.6,-0.4 0.9,-1.2 0.5,-1.8 L -123,251 Z m -63.5,1.9 c 0.2,0.1 0.4,0.2 0.7,0.2 0.5,0 0.9,-0.2 1.1,-0.7 l 0.1,-0.2 c 0.4,-0.6 0.2,-1.4 -0.5,-1.8 -0.6,-0.4 -1.4,-0.2 -1.8,0.5 l -0.1,0.2 c -0.3,0.6 -0.1,1.4 0.5,1.8 z m 58,-7.3 c -0.6,0.5 -0.6,1.3 -0.2,1.9 l 0.1,0.1 c 0.3,0.3 0.6,0.5 1,0.5 0.3,0 0.6,-0.1 0.8,-0.3 0.6,-0.5 0.6,-1.3 0.2,-1.9 l -0.1,-0.2 c -0.4,-0.5 -1.3,-0.6 -1.8,-0.1 z m -53.7,2.4 c 0.4,0 0.8,-0.2 1,-0.5 l 0.1,-0.1 c 0.5,-0.6 0.4,-1.4 -0.2,-1.9 -0.6,-0.5 -1.4,-0.4 -1.9,0.2 l -0.1,0.2 c -0.5,0.6 -0.4,1.4 0.2,1.9 0.3,0.1 0.6,0.2 0.9,0.2 z m 49.3,-4.8 0.1,0.1 c 0.2,0.2 0.6,0.3 0.9,0.3 0.4,0 0.8,-0.2 1,-0.5 0.5,-0.6 0.4,-1.4 -0.2,-1.9 l -0.1,-0.1 c -0.6,-0.5 -1.4,-0.4 -1.9,0.2 -0.5,0.6 -0.4,1.5 0.2,1.9 z m -44.9,0.4 c 0.3,0 0.6,-0.1 0.9,-0.3 l 0.1,-0.1 c 0.6,-0.5 0.6,-1.3 0.2,-1.9 -0.5,-0.6 -1.3,-0.6 -1.9,-0.2 l -0.2,0.1 c -0.6,0.5 -0.6,1.3 -0.2,1.9 0.3,0.3 0.7,0.5 1.1,0.5 z m 41.5,-6 -0.2,-0.1 c -0.6,-0.4 -1.4,-0.1 -1.8,0.5 -0.4,0.6 -0.1,1.4 0.5,1.8 l 0.2,0.1 c 0.2,0.1 0.4,0.2 0.7,0.2 0.5,0 0.9,-0.2 1.1,-0.7 0.3,-0.6 0.1,-1.4 -0.5,-1.8 z m -36.5,2.4 c 0.2,0 0.5,-0.1 0.7,-0.2 l 0.2,-0.1 c 0.6,-0.4 0.9,-1.2 0.5,-1.8 -0.4,-0.6 -1.2,-0.9 -1.8,-0.5 l -0.2,0.1 c -0.6,0.4 -0.9,1.2 -0.5,1.8 0.2,0.5 0.7,0.7 1.1,0.7 z m 31,-3.3 c -0.1,-2.1 -0.5,-3.5 -2.6,-4.8 -1.7,-1 -3.4,-2 -4.6,-2.6 l 2.2,5.5 -2.8,-0.4 -3.5,5.1 -1.8,2.6 0,0 0,0.1 0,0 3.9,-12.7 0,-2.3 c 0,0 4.4,0.1 6.4,-2 0,0 -3,-0.9 -2.5,-6.3 0.5,-5.5 -0.7,-10.3 -5.1,-9.9 0,0 -1.9,-2.3 -5.7,-0.9 -1.3,0.5 -4.8,1.8 -4.6,9.4 0.2,7.6 -2.7,7.7 -2.7,7.7 0,0 1.5,2.2 6.5,2.1 l 0,2.3 3.7,12.7 0,0 0,-0.1 0,0 -1.8,-2.6 -3.5,-5.1 -2.8,0.4 2.2,-5.5 c -1.2,0.6 -2.9,1.6 -4.6,2.6 -2.1,1.3 -2.5,2.7 -2.6,4.8 l 0.4,7 12.8,0 12.8,0 0.3,-7.1 z m 22.3,67.7 12.8,0 0.4,-7 c -0.1,-2.1 -0.5,-3.5 -2.6,-4.8 -1.7,-1 -3.4,-2 -4.6,-2.6 l 2.2,5.5 -2.8,-0.4 -3.5,5.1 -1.8,2.6 0,0 0,0.1 0,0 3.9,-12.7 0,-2.3 c 0,0 4.4,0.1 6.4,-2 0,0 -3,-0.9 -2.5,-6.3 0.5,-5.5 -0.7,-10.3 -5.1,-9.9 0,0 -1.9,-2.3 -5.7,-0.9 -1.3,0.5 -4.8,1.8 -4.6,9.4 0.2,7.6 -2.7,7.7 -2.7,7.7 0,0 1.5,2.2 6.5,2.1 l 0,2.3 3.7,12.7 0,0 0,-0.1 0,0 -1.8,-2.6 -3.5,-5.1 -2.8,0.4 2.2,-5.5 c -1.2,0.6 -2.9,1.6 -4.6,2.6 -2.1,1.3 -2.5,2.7 -2.6,4.8 l 0.4,7 12.7,0 z m -81.6,-11.8 c -2.1,1.3 -2.5,2.7 -2.6,4.8 l 0.4,7 12.8,0 12.8,0 0.4,-7 c -0.1,-2.1 -0.5,-3.5 -2.6,-4.8 -1.7,-1 -3.4,-2 -4.6,-2.6 l 2.2,5.5 -2.8,-0.4 -3.5,5.1 -1.8,2.6 0,0 0,0.1 0,0 3.9,-12.7 0,-2.3 c 0,0 4.4,0.1 6.4,-2 0,0 -3,-0.9 -2.5,-6.3 0.5,-5.5 -0.7,-10.3 -5.1,-9.9 0,0 -1.9,-2.3 -5.7,-0.9 -1.3,0.5 -4.8,1.8 -4.6,9.4 0.2,7.6 -2.7,7.7 -2.7,7.7 0,0 1.5,2.2 6.5,2.1 l 0,2.3 3.7,12.7 0,0 0,-0.1 0,0 -1.8,-2.6 -3.5,-5.1 -2.8,0.4 2.2,-5.5 c -1.3,0.5 -3.1,1.4 -4.7,2.5 z"/></g></switch><text id="text10" x="-206.3" y="321.352" font-size="5" font-weight="bold" style="font-weight:700;font-size:5px;font-family:'Helvetica Neue',Helvetica,Arial-Unicode,Arial,Sans-serif;fill:#000">Created by Gregor Črešnar</text><text id="text12" x="-206.3" y="326.352" font-size="5" font-weight="bold" style="font-weight:700;font-size:5px;font-family:'Helvetica Neue',Helvetica,Arial-Unicode,Arial,Sans-serif;fill:#000">from the Noun Project</text></svg>