<svg xmlns="http://www.w3.org/2000/svg" xmlns:svg="http://www.w3.org/2000/svg" id="svg2" width="47.2" height="47.835" x="0" y="0" enable-background="new 0 0 48 48" version="1.1" viewBox="0 0 47.2 47.835" xml:space="preserve"><metadata id="metadata38"/><g id="g4" transform="translate(-0.8,-0.16482914)"><g id="g6"><path id="path8" stroke-miterlimit="10" d="M 5.7,37.4 C 3.3,33.9 1.8,29.7 1.8,25.2 1.8,14.4 9.9,5.5 20.5,3.7" style="fill:none;stroke:#000;stroke-width:2;stroke-miterlimit:10"/><path id="path10" stroke-miterlimit="10" d="M 38.2,42.5 C 34.4,45.3 29.6,47 24.4,47 19.4,47 14.8,45.4 11.1,42.8" style="fill:none;stroke:#000;stroke-width:2;stroke-miterlimit:10"/><path id="path12" stroke-miterlimit="10" d="M 29.3,3.8 C 39.4,6 47,14.7 47,25.1 47,29.9 45.4,34.3 42.7,38" style="fill:none;stroke:#000;stroke-width:2;stroke-miterlimit:10"/><polyline id="polyline14" stroke-miterlimit="10" points="33.2 1 29.1 3.7 31.9 7.8" style="fill:none;stroke:#000;stroke-width:2;stroke-miterlimit:10"/><polyline id="polyline16" stroke-miterlimit="10" points="1 37.3 6 37.7 6.4 32.8" style="fill:none;stroke:#000;stroke-width:2;stroke-miterlimit:10"/><polyline id="polyline18" stroke-miterlimit="10" points="37.8 46.9 38.6 42.1 33.6 41.3" style="fill:none;stroke:#000;stroke-width:2;stroke-miterlimit:10"/></g><g id="g20"><polygon id="polygon22" stroke-miterlimit="10" points="35.3 37.3 35.3 18.8 27.5 10.7 12.7 10.7 12.7 37.3" style="fill:none;stroke:#000;stroke-width:2;stroke-miterlimit:10"/><polyline id="polyline24" stroke-miterlimit="10" points="27.5 10.7 27.5 18.8 35.3 18.8" style="fill:none;stroke:#000;stroke-width:2;stroke-miterlimit:10"/><line id="line26" x1="17.2" x2="31.4" y1="24.6" y2="24.6" stroke-miterlimit="10" style="fill:none;stroke:#000;stroke-width:2;stroke-miterlimit:10"/><line id="line28" x1="17.2" x2="31.4" y1="29.8" y2="29.8" stroke-miterlimit="10" style="fill:none;stroke:#000;stroke-width:2;stroke-miterlimit:10"/></g></g><text id="text30" x="-.8" y="62.835" font-size="5" font-weight="bold" style="font-weight:700;font-size:5px;font-family:'Helvetica Neue',Helvetica,Arial-Unicode,Arial,Sans-serif;fill:#000">Created by Creative Stall</text><text id="text32" x="-.8" y="67.835" font-size="5" font-weight="bold" style="font-weight:700;font-size:5px;font-family:'Helvetica Neue',Helvetica,Arial-Unicode,Arial,Sans-serif;fill:#000">from the Noun Project</text></svg>