<svg xmlns="http://www.w3.org/2000/svg" xmlns:svg="http://www.w3.org/2000/svg" id="svg2" width="88.169" height="96.383" x="0" y="0" enable-background="new 0 0 100 100" version="1.1" viewBox="0 0 88.169 96.383" xml:space="preserve"><metadata id="metadata4"/><path id="path6" d="m 19.968971,24.983384 c -0.3,-0.8 -0.5,-1.7 -0.7,-2.5 l 0,0 c -0.5,-2.8 -0.7,-5.4 0,-7.9 0.8,-3.4 2.6,-5.9999997 4.6,-8.0999997 1.3,-1.4 2.7,-2.6 4.3,-3.5 1.3,-0.9 2.6,-1.6 4.2,-2.1 l 0,0 c 1.1,-0.5 2.4,-0.7 3.7,-0.8 4.1,-0.4 7.3,0.7 9.5,2 3.4,1.9 4.6,4.3 4.6,4.3 0,0 7.7,0.5 5.1,16.0999997 -0.1,0.8 -0.4,1.6 -0.7,2.5 1.5,-0.1 3.3,0.7 1.6,6.8 -1.2,4.4 -2.4,5.6 -3.3,5.7 -0.8,5.2 -5,11.9 -11.5,14.2 -2.7,1 -5.7,1 -8.4,0 -6.6,-2.3 -10.7,-9 -11.5,-14.2 -0.9,-0.1 -2,-1.3 -3.3,-5.7 -1.6,-6 0.2,-6.9 1.8,-6.8 z m -19.89999953,46.8 c 0,0 0.4,5.4 0.8,7.8 0,0 13.59999953,8.8 36.39999953,8.9 6.1,0 11.5,-0.6 16.2,-1.6 -0.5,-1.7 -0.7,-3.6 -0.7,-5.5 0,-10 7.2,-18.3 16.6,-20 1.2,-0.2 1.5,-1.8 0.5,-2.4 -0.7,-0.4 -1.5,-0.7 -2.3,-1 -9.4,-2.4 -17,-7.7 -17,-7.7 l -5.9,18.8 -1.1,3.5 0,0 -1,3 -3.1,-8.9 c 7.7,-10.7 -1.6,-10.6 -2.1,-10.6 -0.5,0 -9.8,-0.1 -2.1,10.6 l -3.2,8.8 -1,-3 0,0 -1.1,-3.5 -5.9,-18.7 c 0,0 -7.6,5.4 -16.9999995,7.7 -6.90000003,1.8 -7.30000003,9.8 -7.00000003,13.8 z m 73.09999953,-5.4 c 8.3,0 15,6.7 15,15 0,8.3 -6.7,15 -15,15 -8.3,0 -15,-6.7 -15,-15 0,-8.3 6.7,-15 15,-15 z m -6.1,16.9 2.8,2.8 c 0.4,0.4 0.9,0.6 1.4,0.6 l 0,0 c 0.5,0 1,-0.2 1.4,-0.6 l 6.6,-6.6 c 0.8,-0.8 0.8,-2.1 0,-2.9 -0.8,-0.8 -2.1,-0.8 -2.9,0 l -5.2,5.1 -1.3,-1.3 c -0.8,-0.8 -2.1,-0.8 -2.9,0 -0.7,0.9 -0.7,2.1 0.1,2.9 z"/><text id="text8" x="-5.931" y="113.183" font-size="5" font-weight="bold" style="font-weight:700;font-size:5px;font-family:'Helvetica Neue',Helvetica,Arial-Unicode,Arial,Sans-serif;fill:#000">Created by Gregor Črešnar</text><text id="text10" x="-5.931" y="118.183" font-size="5" font-weight="bold" style="font-weight:700;font-size:5px;font-family:'Helvetica Neue',Helvetica,Arial-Unicode,Arial,Sans-serif;fill:#000">from the Noun Project</text></svg>