<svg xmlns="http://www.w3.org/2000/svg" xmlns:svg="http://www.w3.org/2000/svg" id="Calque_1" width="155.5" height="35" x="0" y="0" enable-background="new 0 0 155.5 35" version="1.1" viewBox="0 0 155.5 35" xml:space="preserve"><metadata id="metadata57"/><path id="path3" d="M 151.5,35 4,35 C 1.8,35 0,33.2 0,31 L 0,4 C 0,1.8 1.8,0 4,0 l 147.5,0 c 2.2,0 4,1.8 4,4 l 0,27 c 0,2.2 -1.8,4 -4,4 z" style="fill:#444"/><path id="path5" d="M 4,0 C 1.8,0 0,1.8 0,4 l 0,27 c 0,2.2 1.8,4 4,4 L 35,35 35,0 4,0 Z" style="fill:#2b2b2b"/><g id="g7" transform="translate(80,2400)"><g id="g9"><path id="path11" d="m -64.6,-2384.9 -6.1,-6.1 3.8,0 c 0.3,0 0.5,-0.2 0.5,-0.5 0,-0.3 -0.2,-0.5 -0.5,-0.5 l -5,0 c -0.3,0 -0.5,0.2 -0.5,0.5 l 0,5 c 0,0.3 0.2,0.5 0.5,0.5 0.3,0 0.5,-0.2 0.5,-0.5 l 0,-3.8 6.1,6.1 c 0.1,0.1 0.2,0.1 0.4,0.1 0.1,0 0.3,0 0.4,-0.1 0,-0.1 0,-0.5 -0.1,-0.7 l 0,0 z" style="fill:#45b0e5"/><path id="path13" d="m -53,-2392 -5,0 c -0.3,0 -0.5,0.2 -0.5,0.5 0,0.3 0.2,0.5 0.5,0.5 l 3.8,0 -6.1,6.1 c -0.2,0.2 -0.2,0.5 0,0.7 0.1,0.1 0.2,0.1 0.4,0.1 0.1,0 0.3,0 0.4,-0.1 l 6.1,-6.1 0,3.8 c 0,0.3 0.2,0.5 0.5,0.5 0.3,0 0.5,-0.2 0.5,-0.5 l 0,-5 c -0.1,-0.3 -0.3,-0.5 -0.6,-0.5 z" style="fill:#45b0e5"/><path id="path15" d="m -64.6,-2379.9 c -0.2,-0.2 -0.5,-0.2 -0.7,0 l -6.1,6.1 0,-3.8 c 0,-0.3 -0.2,-0.5 -0.5,-0.5 -0.3,0 -0.5,0.2 -0.5,0.5 l 0,5 c 0,0.3 0.2,0.5 0.5,0.5 l 5,0 c 0.3,0 0.5,-0.2 0.5,-0.5 0,-0.3 -0.2,-0.5 -0.5,-0.5 l -3.8,0 6.1,-6.1 c 0.1,-0.1 0.1,-0.5 0,-0.7 l 0,0 z" style="fill:#45b0e5"/><path id="path17" d="m -53,-2378 c -0.3,0 -0.5,0.2 -0.5,0.5 l 0,3.8 -6.1,-6.1 c -0.2,-0.2 -0.5,-0.2 -0.7,0 -0.2,0.2 -0.2,0.5 0,0.7 l 6.1,6.1 -3.8,0 c -0.3,0 -0.5,0.2 -0.5,0.5 0,0.3 0.2,0.5 0.5,0.5 l 5,0 c 0.3,0 0.5,-0.2 0.5,-0.5 l 0,-5 c 0,-0.3 -0.2,-0.5 -0.5,-0.5 z" style="fill:#45b0e5"/></g></g><g id="g19"><path id="path21" d="m 39.3,21.9 0,-9.6 3.5,0 c 1.1,0 2.1,0.4 2.8,1.1 0.7,0.7 1.1,1.7 1.1,2.8 l 0,1.8 c 0,1.2 -0.4,2.1 -1.1,2.8 -0.7,0.7 -1.7,1.1 -2.8,1.1 l -3.5,0 z m 2.2,-7.9 0,6.2 1.1,0 c 0.6,0 1.1,-0.2 1.4,-0.6 0.3,-0.4 0.5,-0.9 0.5,-1.6 l 0,-1.7 c 0,-0.7 -0.2,-1.2 -0.5,-1.6 -0.3,-0.4 -0.8,-0.6 -1.4,-0.6 l -1.1,0 z" style="fill:#fff"/><path id="path23" d="m 51.2,22.1 c -1.1,0 -1.9,-0.3 -2.5,-1 -0.6,-0.7 -0.9,-1.5 -0.9,-2.5 l 0,-0.3 c 0,-1.1 0.3,-2 0.9,-2.7 0.6,-0.7 1.4,-1 2.4,-1 1,0 1.7,0.3 2.3,0.9 0.6,0.6 0.8,1.4 0.8,2.4 l 0,1.1 -4.1,0 0,0 c 0,0.4 0.2,0.7 0.4,0.9 0.3,0.2 0.6,0.4 1,0.4 0.4,0 0.8,0 1,-0.1 0.3,-0.1 0.6,-0.2 1,-0.3 l 0.5,1.4 c -0.3,0.2 -0.7,0.4 -1.2,0.6 -0.5,0.1 -1,0.2 -1.6,0.2 z m -0.1,-5.7 c -0.3,0 -0.6,0.1 -0.7,0.3 -0.1,0.2 -0.3,0.5 -0.3,0.9 l 0,0 1.9,0 0,-0.2 C 52,17 51.9,16.8 51.8,16.6 51.7,16.4 51.4,16.4 51.1,16.4 Z" style="fill:#fff"/><path id="path25" d="M 61.899297,18.505862 C 61.899297,19.605862 61.5,20.4 61,21.1 c -0.5,0.7 -1.2,1 -2,1 -0.3,0 -0.6,-0.1 -0.9,-0.2 -0.3,-0.1 -0.5,-0.3 -0.7,-0.6 l 0,3.4 -2.2,0 0,-9.9 2.1,0 0.1,0.8 c 0.2,-0.3 0.4,-0.5 0.7,-0.7 0.3,-0.2 0.6,-0.2 1,-0.2 0.9,0 1.6,0.3 2.1,1 0.5,0.7 0.7,1.6 0.7,2.7 l 0,0.1 z M 59.5,18.4 c 0,-0.6 -0.1,-1.1 -0.3,-1.5 -0.2,-0.4 -0.5,-0.5 -0.8,-0.5 -0.3,0 -0.5,0 -0.6,0.1 -0.2,0.1 -0.3,0.2 -0.4,0.4 l 0,3 c 0.1,0.2 0.2,0.3 0.4,0.3 0.2,0.1 0.4,0.1 0.6,0.1 0.4,0 0.7,-0.2 0.8,-0.5 0.2,-0.3 0.3,-0.8 0.3,-1.4 z" style="fill:#fff"/><path id="path27" d="m 65,21.9 -2.2,0 0,-10.3 2.2,0 0,10.3 z" style="fill:#fff"/><path id="path29" d="m 66.000352,18.3 c 0,-1.1 0.399648,-1.9 0.999648,-2.6 0.6,-0.7 1.5,-1 2.5,-1 1.1,0 1.9,0.3 2.5,1 0.6,0.7 0.9,1.5 0.9,2.6 l 0,0.1 c 0,1.1 -0.3,2 -0.9,2.6 -0.6,0.6 -1.5,1 -2.5,1 -1.1,0 -1.9,-0.3 -2.6,-1 C 66.2,20.3 66,19.5 66,18.4 l 0,-0.1 z M 68.3,18.4 c 0,0.6 0.1,1.1 0.3,1.4 0.2,0.3 0.5,0.5 1,0.5 0.4,0 0.7,-0.2 0.9,-0.5 0.2,-0.3 0.3,-0.8 0.3,-1.4 l 0,-0.1 c 0,-0.6 -0.1,-1 -0.3,-1.4 -0.2,-0.4 -0.5,-0.5 -1,-0.5 -0.4,0 -0.8,0.2 -0.9,0.5 -0.2,0.4 -0.3,0.8 -0.3,1.4 z" style="fill:#fff"/><path id="path31" d="m 76.7,18.8 0,0 0,0 1.2,-4 2.4,0 -2.9,8.2 c -0.2,0.5 -0.5,1 -0.9,1.3 -0.3,0.3 -0.9,0.5 -1.7,0.5 -0.2,0 -0.4,0 -0.5,0 -0.1,0 -0.3,-0.1 -0.6,-0.1 L 74,23.1 c 0.1,0 0.1,0 0.1,0 0,0 0.1,0 0.1,0 0.4,0 0.6,-0.1 0.8,-0.2 0.2,-0.1 0.3,-0.3 0.4,-0.5 l 0.2,-0.5 -2.5,-7.2 2.4,0 1.2,4.1 z" style="fill:#fff"/><path id="path33" d="m 86.2,13.1 0,1.7 1.4,0 0,1 -1.4,0 0,4.3 c 0,0.3 0.1,0.6 0.2,0.7 0.1,0.1 0.3,0.2 0.6,0.2 0.1,0 0.2,0 0.2,0 0,0 0.2,0 0.2,-0.1 l 0.2,0.9 c -0.1,0.1 -0.2,0.1 -0.4,0.2 -0.2,0.1 -0.4,0.1 -0.6,0.1 -0.5,0 -0.9,-0.2 -1.3,-0.5 -0.3,-0.3 -0.5,-0.8 -0.5,-1.5 l 0,-4.3 -1.1,0 0,-1 1.1,0 0,-1.7 1.4,0 z" style="fill:#fff"/><path id="path35" d="m 88.9,18.3 c 0,-1.1 0.3,-1.9 0.9,-2.6 0.6,-0.7 1.3,-1 2.3,-1 1,0 1.8,0.3 2.3,1 0.6,0.7 0.9,1.6 0.9,2.6 l 0,0.1 c 0,1.1 -0.3,1.9 -0.9,2.6 -0.6,0.7 -1.4,1 -2.3,1 -0.9,0 -1.8,-0.3 -2.3,-1 -0.6,-0.7 -0.9,-1.5 -0.9,-2.6 l 0,-0.1 z m 1.3,0.1 c 0,0.8 0.2,1.4 0.5,1.9 0.3,0.5 0.8,0.7 1.4,0.7 0.6,0 1.1,-0.2 1.4,-0.7 0.3,-0.5 0.5,-1.1 0.5,-1.9 l 0,-0.1 c 0,-0.7 -0.2,-1.4 -0.5,-1.9 -0.3,-0.5 -0.8,-0.7 -1.4,-0.7 -0.6,0 -1.1,0.2 -1.4,0.7 -0.3,0.5 -0.5,1.1 -0.5,1.9 l 0,0.1 z" style="fill:#fff"/><g style="font-style:normal;font-weight:400;font-size:160.58016968px;line-height:125%;font-family:Sans;letter-spacing:0;word-spacing:0;fill:#000;fill-opacity:1;stroke:none;stroke-width:1px;stroke-linecap:butt;stroke-linejoin:miter;stroke-opacity:1" id="text4185" transform="scale(0.9499955,1.0526366)"><path style="font-style:normal;font-variant:normal;font-weight:900;font-stretch:normal;font-size:13.9392519px;font-family:Roboto;-inkscape-font-specification:'Roboto Heavy';fill:#45b0e5;fill-opacity:1" id="path4189" d="m 126.73633,10.398438 0,10.61914 2.30859,0 0,-10.61914 -2.30859,0 z m 3.8125,0 0,1.544921 2.30664,0 0,-1.544921 -2.30664,0 z m -23.32617,0.566406 c -1.10716,0 -2.02073,0.254839 -2.74219,0.767578 -0.71693,0.512739 -1.07617,1.185259 -1.07617,2.015625 0,0.853053 0.30275,1.507186 0.90625,1.960937 0.60348,0.449214 1.53084,0.870861 2.7832,1.265625 0.59895,0.213264 1.01468,0.414893 1.24609,0.605469 0.23142,0.190575 0.34571,0.461158 0.34571,0.810547 0,0.308551 -0.11757,0.557471 -0.35352,0.748047 -0.23141,0.190575 -0.58411,0.285156 -1.06055,0.285156 -0.62618,0 -1.09379,-0.122162 -1.40234,-0.367187 -0.30855,-0.245026 -0.46289,-0.652882 -0.46289,-1.22461 l -2.24023,0 -0.0137,0.04102 c -0.0227,1.061779 0.37793,1.876169 1.19922,2.443359 0.82129,0.562652 1.79462,0.84375 2.91992,0.84375 1.12077,0 2.01923,-0.244323 2.69532,-0.734375 0.68063,-0.494589 1.01953,-1.177625 1.01953,-2.048828 0,-0.857591 -0.28569,-1.531432 -0.85742,-2.021484 -0.56719,-0.490052 -1.41376,-0.904458 -2.53907,-1.240235 -0.73054,-0.263176 -1.22838,-0.479918 -1.49609,-0.652343 -0.26317,-0.176964 -0.39453,-0.410771 -0.39453,-0.701172 0,-0.299476 0.13136,-0.551672 0.39453,-0.75586 0.26318,-0.204188 0.62506,-0.30664 1.08789,-0.30664 0.4719,0 0.84166,0.125436 1.10938,0.375 0.26771,0.245025 0.40234,0.56422 0.40234,0.958984 l 2.23242,0 0.0137,-0.04101 c 0.0227,-0.889354 -0.31817,-1.615083 -1.02148,-2.177735 -0.69878,-0.56719 -1.59723,-0.849609 -2.69531,-0.849609 z m 7.99804,2.550781 c -1.10715,0 -1.96291,0.35005 -2.5664,1.048828 -0.60349,0.69424 -0.9043,1.592696 -0.9043,2.695313 l 0,0.15625 c 0,1.107154 0.30081,2.008884 0.9043,2.703125 0.60802,0.69424 1.4697,1.041015 2.58593,1.041015 0.88936,0 1.61968,-0.252194 2.19141,-0.755859 0.57625,-0.508202 0.85602,-1.163657 0.83789,-1.966797 l -0.0137,-0.04102 -2.10352,0 c 0,0.326702 -0.0749,0.5743 -0.22461,0.742188 -0.14974,0.167888 -0.37895,0.251953 -0.6875,0.251953 -0.44921,0 -0.76248,-0.174049 -0.93945,-0.523437 -0.17243,-0.349389 -0.25781,-0.83407 -0.25781,-1.451172 l 0,-0.15625 c 0,-0.598952 0.0854,-1.077083 0.25781,-1.435547 0.17697,-0.358464 0.48432,-0.539063 0.91992,-0.539063 0.31309,0 0.5469,0.111646 0.70118,0.333985 0.15428,0.2178 0.23046,0.502173 0.23046,0.851562 l 2.10352,0 0.0137,-0.04102 c 0.0181,-0.898428 -0.25243,-1.609045 -0.81055,-2.13086 -0.55811,-0.521815 -1.30355,-0.783203 -2.23828,-0.783203 z m 7.06446,0 c -0.97103,0 -1.75192,0.227889 -2.3418,0.681641 -0.58985,0.449214 -0.86767,1.010088 -0.83594,1.68164 l 0.0137,0.04102 2.22461,0.0059 c 0,-0.263176 0.0644,-0.455612 0.19141,-0.578125 0.13159,-0.12705 0.32862,-0.191406 0.5918,-0.191406 0.30854,0 0.53448,0.08407 0.67968,0.251953 0.14974,0.167888 0.22461,0.409568 0.22461,0.722656 l 0,0.523438 -0.83593,0 c -1.11623,0 -1.94901,0.200307 -2.49805,0.599609 -0.54451,0.394764 -0.81641,0.95696 -0.81641,1.6875 0,0.671553 0.21674,1.209443 0.65235,1.613282 0.44014,0.403839 1.01021,0.605468 1.70898,0.605468 0.44014,0 0.81449,-0.08866 1.12305,-0.265625 0.30854,-0.1815 0.57125,-0.424502 0.78906,-0.728515 0.0363,0.154275 0.079,0.304018 0.12891,0.449218 0.0544,0.1452 0.1142,0.276556 0.17773,0.394532 l 2.27344,0.0078 c -0.13159,-0.331239 -0.23077,-0.666176 -0.29883,-1.001953 -0.0635,-0.335776 -0.0957,-0.700939 -0.0957,-1.095703 l 0,-2.775391 c 0,-0.843978 -0.28438,-1.493513 -0.85157,-1.947265 -0.56265,-0.453752 -1.29757,-0.681641 -2.20507,-0.681641 z m 16.2539,0 c -0.4356,0 -0.82966,0.105727 -1.18359,0.314453 -0.35393,0.204189 -0.65209,0.489883 -0.89258,0.857422 l -0.0879,-1.035156 -2.1582,0 0,7.365234 2.29297,0 0,-5.294922 c 0.11797,-0.136126 0.25852,-0.243175 0.42187,-0.320312 0.16789,-0.07714 0.35901,-0.117188 0.57227,-0.117188 0.34031,0 0.5971,0.08866 0.76953,0.265625 0.17696,0.172426 0.26562,0.470589 0.26562,0.892578 l 0,4.574219 2.30078,0 0,-4.568359 c 0,-1.020942 -0.2049,-1.765058 -0.61328,-2.232422 -0.40383,-0.467365 -0.96603,-0.701172 -1.6875,-0.701172 z m 6.11914,0 c -0.91204,0 -1.61806,0.353325 -2.11718,1.056641 -0.49913,0.703315 -0.74805,1.627398 -0.74805,2.77539 l 0,0.144532 c 0,1.102616 0.24565,1.988603 0.74023,2.660156 0.49913,0.671552 1.20382,1.007812 2.11133,1.007812 0.35393,0 0.66853,-0.06895 0.94531,-0.205078 0.27679,-0.140663 0.51979,-0.343615 0.72852,-0.611328 l 0,0.373047 c 0,0.440139 -0.12543,0.788868 -0.375,1.042969 -0.24956,0.2541 -0.61013,0.380859 -1.08203,0.380859 -0.39023,0 -0.737,-0.03677 -1.04102,-0.109375 -0.30401,-0.06806 -0.6232,-0.175112 -0.95898,-0.320312 l -0.375,1.701171 c 0.37661,0.176964 0.77396,0.317513 1.1914,0.421875 0.41746,0.104363 0.81612,0.158204 1.19727,0.158204 1.14345,0 2.05438,-0.298164 2.73047,-0.892579 0.67609,-0.594414 1.01367,-1.384499 1.01367,-2.36914 l 0,-7.078125 -2.01562,0 -0.15625,0.925781 c -0.21327,-0.340313 -0.46679,-0.601702 -0.76172,-0.783203 -0.29494,-0.186039 -0.63712,-0.279297 -1.02735,-0.279297 z m 8.53516,0 c -1.12077,0 -1.99491,0.35005 -2.62109,1.048828 -0.62618,0.69424 -0.93946,1.595971 -0.93946,2.703125 l 0,0.142578 c 0,1.111692 0.31328,2.014744 0.93946,2.708985 0.62618,0.69424 1.50492,1.041015 2.63476,1.041015 1.11623,0 1.98711,-0.346775 2.61328,-1.041015 0.62618,-0.694241 0.93946,-1.597293 0.93946,-2.708985 l 0,-0.142578 c 0,-1.107154 -0.31328,-2.008885 -0.93946,-2.703125 -0.62617,-0.698778 -1.50164,-1.048828 -2.62695,-1.048828 z m -22.64453,0.136719 0,7.365234 2.30664,0 0,-7.365234 -2.30664,0 z m 14.69336,1.632812 c 0.24502,0 0.4578,0.04924 0.63476,0.144532 0.1815,0.09529 0.32797,0.227965 0.44141,0.40039 l 0,3.089844 c -0.11797,0.158813 -0.26772,0.278331 -0.44922,0.355469 -0.17697,0.07714 -0.39106,0.115234 -0.64062,0.115234 -0.41292,0 -0.70781,-0.166808 -0.88477,-0.498047 -0.17243,-0.335776 -0.25781,-0.801438 -0.25781,-1.40039 l 0,-0.144532 c 0,-0.62164 0.09,-1.11948 0.27148,-1.496094 0.1815,-0.376613 0.47639,-0.566406 0.88477,-0.566406 z m 7.95117,0 c 0.45829,0 0.7834,0.181921 0.97852,0.544922 0.19511,0.358464 0.29296,0.838548 0.29296,1.4375 l 0,0.142578 c 0,0.612565 -0.0979,1.095292 -0.29296,1.449219 -0.19512,0.353926 -0.51564,0.53125 -0.96485,0.53125 -0.46283,0 -0.79317,-0.174049 -0.98828,-0.523437 -0.19057,-0.353927 -0.28516,-0.83993 -0.28516,-1.457032 l 0,-0.142578 c 0,-0.594415 0.0946,-1.074499 0.28516,-1.4375 0.19511,-0.363001 0.52086,-0.544922 0.97461,-0.544922 z m -30.97656,2.59375 0.8164,0 0,1.150391 c -0.11797,0.1452 -0.27036,0.262765 -0.46093,0.353515 -0.19058,0.09075 -0.40008,0.136719 -0.62696,0.136719 -0.22688,0 -0.41339,-0.06436 -0.55859,-0.191406 -0.14066,-0.131588 -0.21094,-0.30104 -0.21094,-0.509766 0,-0.272251 0.0827,-0.496865 0.2461,-0.673828 0.16788,-0.176963 0.43192,-0.265625 0.79492,-0.265625 z"/></g></g></svg>
